<svg width="751.4px" height="149.6px" xmlns="http://www.w3.org/2000/svg" viewBox="-125.69999999999999 0.20000000000000284 751.4 149.6" style="background: rgb(253, 253, 253);" preserveAspectRatio="xMidYMid"><defs><filter id="editing-neon" x="-100%" y="-100%" width="300%" height="300%"><feFlood flood-color="#29a8ff" result="flood"></feFlood><feComposite operator="in" in="flood" in2="SourceAlpha" result="color"></feComposite><feFlood flood-color="#29a8ff" result="flood2"></feFlood><feComposite operator="in" in="flood2" in2="SourceAlpha" result="color2"></feComposite><feMorphology operator="dilate" radius="2" in="color" result="dilate"></feMorphology><feGaussianBlur stdDeviation="6" in="color" result="blur1"></feGaussianBlur><feGaussianBlur stdDeviation="2.5" in="color" result="blur2"></feGaussianBlur><feGaussianBlur stdDeviation="1" in="SourceAlpha" result="blur3"></feGaussianBlur><feGaussianBlur stdDeviation="6" in="dilate" result="blur4"></feGaussianBlur><feConvolveMatrix in="color2" result="conv" order="3,3" divisor="1" kernelMatrix="1 1 1  1 1 1  1 1 1"></feConvolveMatrix><feMerge><feMergeNode in="blur1"></feMergeNode><feMergeNode in="blur2"></feMergeNode><feMergeNode in="blur4"></feMergeNode><feMergeNode in="blur3"></feMergeNode><feMergeNode in="blur3"></feMergeNode><feMergeNode in="blur3"></feMergeNode><feMergeNode in="blur3"></feMergeNode><feMergeNode in="conv"></feMergeNode><feMergeNode in="SourceGraphic"></feMergeNode></feMerge></filter></defs><g filter="url(#editing-neon)"><g transform="translate(-18.014988243579865, 113.13000297546387)"><path d="M0.57-0.41L0.57-0.41L10.91-54.12L10.91-54.12Q20.58-54.94 26.81-54.94L26.81-54.94L26.81-54.94Q33.05-54.94 37.06-54.41L37.06-54.41L37.06-54.41Q41.08-53.87 43.79-52.48L43.79-52.48L43.79-52.48Q49.20-49.86 49.20-42.64L49.20-42.64L49.20-42.64Q49.20-38.46 45.59-34.93L45.59-34.93L45.59-34.93Q42.23-31.73 38.54-31.00L38.54-31.00L38.54-31.00Q42.48-30.34 45.26-27.39L45.26-27.39L45.26-27.39Q48.22-24.27 48.22-19.43L48.22-19.43L48.22-19.43Q48.22-10.09 41.25-4.63L41.25-4.63L41.25-4.63Q34.28 0.82 20.58 0.82L20.58 0.82L20.58 0.82Q11.15 0.82 0.57-0.41ZM22.88-26.40L18.78-5.17L18.78-5.17Q19.52-5.08 19.68-5.08L19.68-5.08L20.42-5.08L20.42-5.08Q27.14-5.08 30.01-9.51L30.01-9.51L30.01-9.51Q32.14-12.96 32.14-19.27L32.14-19.27L32.14-19.27Q32.14-22.63 29.97-24.44L29.97-24.44L29.97-24.44Q27.80-26.24 22.88-26.40L22.88-26.40ZM35.34-42.56L35.34-42.56L35.34-42.56Q35.34-49.36 28.78-49.36L28.78-49.36L28.04-49.36L28.04-49.36Q27.72-49.36 27.22-49.28L27.22-49.28L23.94-31.98L24.76-31.98L24.76-31.98Q35.34-32.23 35.34-42.56ZM86.84-13.86L86.84-13.86L86.84-13.86Q88.89-12.46 88.89-9.39L88.89-9.39L88.89-9.39Q88.89-6.31 87.33-4.35L87.33-4.35L87.33-4.35Q85.77-2.38 83.23-1.07L83.23-1.07L83.23-1.07Q77.98 1.64 72.32 1.64L72.32 1.64L72.32 1.64Q66.67 1.64 63.34 0.41L63.34 0.41L63.34 0.41Q60.02-0.82 57.81-3.12L57.81-3.12L57.81-3.12Q53.46-7.46 53.46-15.42L53.46-15.42L53.46-15.42Q53.46-27.80 60.19-35.34L60.19-35.34L60.19-35.34Q67.40-43.46 79.95-43.46L79.95-43.46L79.95-43.46Q87.74-43.46 91.59-40.18L91.59-40.18L91.59-40.18Q94.46-37.72 94.46-33.70L94.46-33.70L94.46-33.70Q94.46-19.27 69.54-19.27L69.54-19.27L69.54-19.27Q69.21-17.14 69.21-15.33L69.21-15.33L69.21-15.33Q69.21-11.56 70.89-10.13L70.89-10.13L70.89-10.13Q72.57-8.69 75.69-8.69L75.69-8.69L75.69-8.69Q78.80-8.69 82.12-10.13L82.12-10.13L82.12-10.13Q85.44-11.56 86.84-13.86ZM70.11-22.80L70.11-22.80L70.11-22.80Q75.93-22.80 79.29-26.40L79.29-26.40L79.29-26.40Q82.66-29.85 82.66-35.34L82.66-35.34L82.66-35.34Q82.66-37.23 81.96-38.25L81.96-38.25L81.96-38.25Q81.26-39.28 79.87-39.28L79.87-39.28L79.87-39.28Q78.47-39.28 77.28-38.75L77.28-38.75L77.28-38.75Q76.10-38.21 74.87-36.41L74.87-36.41L74.87-36.41Q71.83-32.31 70.11-22.80ZM130.95 0L113.41 0L123.41-53.87L123.41-53.87Q131.53-54.78 143.38-54.78L143.38-54.78L143.38-54.78Q155.23-54.78 160.72-51.33L160.72-51.33L160.72-51.33Q166.21-47.89 166.21-40.96L166.21-40.96L166.21-40.96Q166.21-34.03 162.65-29.68L162.65-29.68L162.65-29.68Q159.08-25.34 152.93-23.94L152.93-23.94L152.93-23.94Q154.32-17.14 157.52-11.64L157.52-11.64L157.52-11.64Q160.47-6.48 163.92-4.84L163.92-4.84L163.92-4.84Q162.69-1.39 160.19 0.12L160.19 0.12L160.19 0.12Q157.69 1.64 154.12 1.64L154.12 1.64L154.12 1.64Q150.55 1.64 147.76-0.45L147.76-0.45L147.76-0.45Q144.98-2.54 142.76-6.40L142.76-6.40L142.76-6.40Q138.09-14.76 137.60-27.96L137.60-27.96L138.17-27.96L138.17-27.96Q144.24-28.13 147.27-31.28L147.27-31.28L147.27-31.28Q150.31-34.44 150.31-41.08L150.31-41.08L150.31-41.08Q150.31-49.36 143.34-49.69L143.34-49.69L141.53-49.69L141.53-49.69Q140.79-49.69 140.38-49.61L140.38-49.61L130.95 0ZM189.67-4.51L189.67-4.51L189.67-4.51Q187.12 1.64 179.01 1.64L179.01 1.64L179.01 1.64Q174.82 1.64 172.20-1.23L172.20-1.23L172.20-1.23Q169.99-3.77 169.99-6.31L169.99-6.31L169.99-6.31Q169.99-12.96 173.02-25.91L173.02-25.91L176.05-41.82L192.70-43.46L187.70-17.55L187.70-17.55Q186.30-11.48 186.30-9.35L186.30-9.35L186.30-9.35Q186.30-4.67 189.67-4.51ZM177.53-53.22L177.53-53.22L177.53-53.22Q177.53-56.42 180.20-58.14L180.20-58.14L180.20-58.14Q182.86-59.86 186.71-59.86L186.71-59.86L186.71-59.86Q190.57-59.86 192.91-58.14L192.91-58.14L192.91-58.14Q195.24-56.42 195.24-53.22L195.24-53.22L195.24-53.22Q195.24-50.02 192.66-48.38L192.66-48.38L192.66-48.38Q190.08-46.74 186.22-46.74L186.22-46.74L186.22-46.74Q182.37-46.74 179.95-48.38L179.95-48.38L179.95-48.38Q177.53-50.02 177.53-53.22ZM202.46-34.28L202.46-34.28L202.46-34.28Q205.25-38.21 209.47-40.84L209.47-40.84L209.47-40.84Q213.69-43.46 218.86-43.46L218.86-43.46L218.86-43.46Q224.02-43.46 226.48-41.82L226.48-41.82L242.56-43.46L236.98-11.97L236.98-11.97Q234.11 4.10 228.04 10.41L228.04 10.41L228.04 10.41Q222.22 16.40 210.90 16.40L210.90 16.40L210.90 16.40Q202.29 16.40 197.37 13.69L197.37 13.69L197.37 13.69Q192.45 10.99 192.45 6.48L192.45 6.48L192.45 6.48Q192.45 3.12 195.00 1.19L195.00 1.19L195.00 1.19Q197.54-0.74 201.47-0.74L201.47-0.74L201.47-0.74Q204.92-0.74 207.54 0.82L207.54 0.82L207.54 0.82Q209.10 1.64 209.84 2.79L209.84 2.79L209.84 2.79Q207.95 4.43 207.95 7.13L207.95 7.13L207.95 7.13Q207.95 10.66 211.23 10.66L211.23 10.66L211.23 10.66Q216.73 10.66 219.84-2.30L219.84-2.30L219.84-2.30Q220.74-5.82 221.48-9.35L221.48-9.35L221.48-9.35Q217.79-4.84 209.43-4.84L209.43-4.84L209.43-4.84Q203.61-4.84 200.24-7.63L200.24-7.63L200.24-7.63Q196.88-10.41 196.88-16.97L196.88-16.97L196.88-16.97Q196.88-21.07 198.28-25.71L198.28-25.71L198.28-25.71Q199.67-30.34 202.46-34.28ZM213.12-16.73L213.12-16.73L213.12-16.73Q213.12-11.15 215.99-11.15L215.99-11.15L215.99-11.15Q217.96-11.15 219.84-13.28L219.84-13.28L219.84-13.28Q221.32-15.01 221.89-17.55L221.89-17.55L226.07-38.62L226.07-38.62Q225.66-38.70 225.25-38.87L225.25-38.87L225.25-38.87Q224.43-39.20 223.37-39.20L223.37-39.20L223.37-39.20Q218.37-39.20 215.41-31.00L215.41-31.00L215.41-31.00Q213.12-24.60 213.12-16.73ZM287-9.10L287-9.10L287-9.10Q287-5.49 290.69-4.43L290.69-4.43L290.69-4.43Q289.79-1.39 286.26 0.25L286.26 0.25L286.26 0.25Q283.31 1.64 280.07 1.64L280.07 1.64L280.07 1.64Q276.83 1.64 275.15 0.78L275.15 0.78L275.15 0.78Q273.47-0.08 272.57-1.48L272.57-1.48L272.57-1.48Q271.09-3.61 271.09-7.63L271.09-7.63L271.09-7.63Q271.09-10.00 272.40-16.56L272.40-16.56L273.55-22.80L273.55-22.80Q274.95-29.93 274.95-32.55L274.95-32.55L274.95-32.55Q274.95-37.15 272.40-37.15L272.40-37.15L272.40-37.15Q269.21-37.15 267.16-32.47L267.16-32.47L267.16-32.47Q266.34-30.67 265.76-27.96L265.76-27.96L260.19 0L243.70 1.64L255.27-57.40L271.75-59.04L271.09-55.76L271.09-55.76Q268.80-43.13 266.83-38.87L266.83-38.87L266.83-38.87Q271.42-43.46 279.87-43.46L279.87-43.46L279.87-43.46Q288.80-43.46 290.44-37.56L290.44-37.56L290.44-37.56Q291.02-35.67 291.02-34.03L291.02-34.03L291.02-34.03Q291.02-32.39 290.90-31.12L290.90-31.12L290.90-31.12Q290.77-29.85 290.36-27.55L290.36-27.55L289.30-21.65L287.41-12.38L287.41-12.38Q287-10.50 287-9.10ZM298.64-8.20L298.64-8.20L298.64-8.20Q298.64-10.41 299.79-15.99L299.79-15.99L304.14-38.13L299.30-38.13L299.63-40.59L299.63-40.59Q309.47-43.54 318.98-50.76L318.98-50.76L322.92-50.76L320.95-41.82L327.34-41.82L326.61-38.13L320.29-38.13L316.11-15.99L316.11-15.99Q315.04-10.91 315.04-9.18L315.04-9.18L315.04-9.18Q315.04-5.25 318.49-4.43L318.49-4.43L318.49-4.43Q317.67-1.64 314.72 0L314.72 0L314.72 0Q311.76 1.64 307.58 1.64L307.58 1.64L307.58 1.64Q303.40 1.64 301.02-0.98L301.02-0.98L301.02-0.98Q298.64-3.61 298.64-8.20ZM343.01-0.41L343.01-0.41L353.34-54.12L353.34-54.12Q363.01-54.94 369.25-54.94L369.25-54.94L369.25-54.94Q375.48-54.94 379.50-54.41L379.50-54.41L379.50-54.41Q383.51-53.87 386.22-52.48L386.22-52.48L386.22-52.48Q391.63-49.86 391.63-42.64L391.63-42.64L391.63-42.64Q391.63-38.46 388.02-34.93L388.02-34.93L388.02-34.93Q384.66-31.73 380.97-31.00L380.97-31.00L380.97-31.00Q384.91-30.34 387.70-27.39L387.70-27.39L387.70-27.39Q390.65-24.27 390.65-19.43L390.65-19.43L390.65-19.43Q390.65-10.09 383.68-4.63L383.68-4.63L383.68-4.63Q376.71 0.82 363.01 0.82L363.01 0.82L363.01 0.82Q353.58 0.82 343.01-0.41ZM365.31-26.40L361.21-5.17L361.21-5.17Q361.95-5.08 362.11-5.08L362.11-5.08L362.85-5.08L362.85-5.08Q369.57-5.08 372.44-9.51L372.44-9.51L372.44-9.51Q374.58-12.96 374.58-19.27L374.58-19.27L374.58-19.27Q374.58-22.63 372.40-24.44L372.40-24.44L372.40-24.44Q370.23-26.24 365.31-26.40L365.31-26.40ZM377.77-42.56L377.77-42.56L377.77-42.56Q377.77-49.36 371.21-49.36L371.21-49.36L370.48-49.36L370.48-49.36Q370.15-49.36 369.66-49.28L369.66-49.28L366.38-31.98L367.20-31.98L367.20-31.98Q377.77-32.23 377.77-42.56ZM399.63-2.46L399.63-2.46L399.63-2.46Q397.70-4.59 396.84-7.95L396.84-7.95L396.84-7.95Q395.98-11.32 395.98-16.81L395.98-16.81L395.98-16.81Q395.98-22.30 397.86-27.31L397.86-27.31L397.86-27.31Q399.75-32.31 403.19-35.92L403.19-35.92L403.19-35.92Q410.25-43.46 421.89-43.46L421.89-43.46L421.89-43.46Q426.07-43.46 429.11-42.07L429.11-42.07L443.13-43.46L437.06-11.48L437.06-11.48Q436.81-10.50 436.81-8.69L436.81-8.69L436.81-8.69Q436.81-6.89 437.92-5.74L437.92-5.74L437.92-5.74Q439.03-4.59 440.67-4.43L440.67-4.43L440.67-4.43Q439.85-1.64 436.85 0L436.85 0L436.85 0Q433.86 1.64 430.50 1.64L430.50 1.64L430.50 1.64Q427.14 1.64 424.88 0.37L424.88 0.37L424.88 0.37Q422.63-0.90 421.97-3.03L421.97-3.03L421.97-3.03Q420.66-0.98 417.87 0.33L417.87 0.33L417.87 0.33Q415.08 1.64 411.35 1.64L411.35 1.64L411.35 1.64Q407.62 1.64 404.59 0.66L404.59 0.66L404.59 0.66Q401.55-0.33 399.63-2.46ZM416.93-35.75L416.93-35.75L416.93-35.75Q415.99-34.28 415.17-31.78L415.17-31.78L415.17-31.78Q414.35-29.27 412.99-22.59L412.99-22.59L412.99-22.59Q411.64-15.91 411.64-11.15L411.64-11.15L411.64-11.15Q411.64-6.40 412.38-5.00L412.38-5.00L412.38-5.00Q413.12-3.61 414.43-3.61L414.43-3.61L414.43-3.61Q417.05-3.61 418.98-6.11L418.98-6.11L418.98-6.11Q420.91-8.61 421.64-13.04L421.64-13.04L425.99-37.06L425.99-37.06Q424.27-38.54 422.26-38.54L422.26-38.54L422.26-38.54Q420.25-38.54 419.06-37.88L419.06-37.88L419.06-37.88Q417.87-37.23 416.93-35.75ZM487.49-34.11L487.49-34.11L487.49-34.11Q487.49-30.67 484.62-28.54L484.62-28.54L484.62-28.54Q481.75-26.40 477.08-26.40L477.08-26.40L477.08-26.40Q475.11-26.40 473.96-26.98L473.96-26.98L473.96-26.98Q474.86-29.11 475.15-31.78L475.15-31.78L475.15-31.78Q475.44-34.44 475.44-35.18L475.44-35.18L475.44-35.18Q475.44-38.62 473.06-38.62L473.06-38.62L473.06-38.62Q471.42-38.62 469.57-36.57L469.57-36.57L469.57-36.57Q467.73-34.52 466.17-31.32L466.17-31.32L466.17-31.32Q462.73-23.94 462.73-16.48L462.73-16.48L462.73-16.48Q462.73-12.38 464.28-10.54L464.28-10.54L464.28-10.54Q465.84-8.69 469.29-8.69L469.29-8.69L469.29-8.69Q474.04-8.69 477.81-12.63L477.81-12.63L477.81-12.63Q478.88-13.86 479.45-15.25L479.45-15.25L479.45-15.25Q482.57-13.61 482.57-9.10L482.57-9.10L482.57-9.10Q482.57-4.51 477.49-1.48L477.49-1.48L477.49-1.48Q472.24 1.64 463.87 1.64L463.87 1.64L463.87 1.64Q447.23 1.64 447.23-15.99L447.23-15.99L447.23-15.99Q447.23-28.86 454.53-36.24L454.53-36.24L454.53-36.24Q461.58-43.46 474.53-43.46L474.53-43.46L474.53-43.46Q487.49-43.46 487.49-34.11ZM510.86-38.87L510.86-38.87L510.86-38.87Q515.29-43.46 524.64-43.46L524.64-43.46L524.64-43.46Q529.80-43.46 532.63-40.71L532.63-40.71L532.63-40.71Q535.46-37.97 535.46-32.92L535.46-32.92L535.46-32.92Q535.46-27.88 532.63-24.31L532.63-24.31L532.63-24.31Q529.80-20.75 524.55-19.27L524.55-19.27L524.55-19.27Q524.96-17.63 525.54-15.91L525.54-15.91L526.69-12.63L526.69-12.63Q528.24-8.45 529.47-6.97L529.47-6.97L529.47-6.97Q530.70-5.49 532.34-5.00L532.34-5.00L532.34-5.00Q531.44-1.64 528.16 0.16L528.16 0.16L528.16 0.16Q525.54 1.64 521.93 1.64L521.93 1.64L521.93 1.64Q511.35 1.64 509.96-14.68L509.96-14.68L509.96-14.68Q509.71-16.97 509.71-19.27L509.71-19.27L509.71-19.27Q513.81-20.42 516.68-24.27L516.68-24.27L516.68-24.27Q519.55-28.13 519.55-32.64L519.55-32.64L519.55-32.64Q519.55-37.15 516.35-37.15L516.35-37.15L516.35-37.15Q514.06-37.15 512.25-34.60L512.25-34.60L512.25-34.60Q510.45-32.06 509.63-27.72L509.63-27.72L504.22 0L487.65 1.64L499.13-57.40L515.62-59.04L513.73-49.28L513.73-49.28Q512.50-42.39 510.86-38.87Z" fill="none" stroke="#e4ffff" stroke-width="2.6"></path></g></g><style>text {
  font-size: 64px;
  font-family: Arial Black;
  dominant-baseline: central;
  text-anchor: middle;
}</style></svg>