<svg width="590.8400146484374px" height="120.8px" xmlns="http://www.w3.org/2000/svg" viewBox="-45.420007324218716 14.600000000000001 590.8400146484374 120.8" style="background: rgba(0, 0, 0, 0);" preserveAspectRatio="xMidYMid"><defs>
  <filter id="editing-scratch" x="-100%" y="-100%" width="300%" height="300%">
    <!-- COLOR -->
    <feFlood flood-color="#fed375" flood-opacity="0.75" result="COLOR-blu"></feFlood>
    <feFlood flood-color="#666" flood-opacity="0.4" result="COLOR-red"></feFlood>
    <!-- COLOR END -->

    <!-- Texture -->
    <feTurbulence baseFrequency=".05" type="fractalNoise" numOctaves="3" seed="0" result="Texture_10"></feTurbulence>
    <feColorMatrix type="matrix" values="0 0 0 0 0,
    0 0 0 0 0,
    0 0 0 0 0,
    0 0 0 -2.1 1.1" in="Texture_10" result="Texture_20"></feColorMatrix>

    <feColorMatrix result="Texture_30" type="matrix" values="0 0 0 0 0,
    0 0 0 0 0,
    0 0 0 0 0,
    0 0 0 -1.7 1.8" in="Texture_10"></feColorMatrix>
    <!-- Texture -->

    <!-- FILL -->
    <feOffset dx="-3" dy="4" in="SourceAlpha" result="FILL_10"></feOffset>
    <feDisplacementMap scale="17" in="FILL_10" in2="Texture_10" result="FILL_20"></feDisplacementMap>
    <feComposite operator="in" in="Texture_30" in2="FILL_20" result="FILL_40"></feComposite>
    <feComposite operator="in" in="COLOR-blu" in2="FILL_40" result="FILL_50"></feComposite>
    <!-- FILL END-->

    <!-- OUTLINE -->
    <feMorphology operator="dilate" radius="3" in="SourceGraphic" result="OUTLINE_10"></feMorphology>
    <feComposite operator="out" in="OUTLINE_10" in2="SourceGraphic" result="OUTLINE_20"></feComposite>
    <feDisplacementMap scale="7" in="OUTLINE_20" in2="Texture_10" result="OUTLINE_30"></feDisplacementMap>
    <feComposite operator="arithmetic" k2="-1" k3="1" in="Texture_20" in2="OUTLINE_30" result="OUTLINE_40"></feComposite>
    <!-- OUTLINE END-->

    <!-- BEVEL OUTLINE -->
    <feConvolveMatrix order="8,8" divisor="1" kernelMatrix="1 0 0 0 0 0 0 0 0 1 0 0 0 0 0 0 0 0 1 0 0 0 0 0 0 0 0 1 0 0 0 0 0 0 0 0 1 0 0 0 0 0 0 0 0 1 0 0 0 0 0 0 0 0 1 0 0 0 0 0 0 0 0 1 " in="SourceGraphic" result="BEVEL_10"></feConvolveMatrix>
    <feMorphology operator="dilate" radius="2" in="BEVEL_10" result="BEVEL_20"></feMorphology>
    <feComposite operator="out" in="BEVEL_20" in2="BEVEL_10" result="BEVEL_30"></feComposite>
    <feDisplacementMap scale="7" in="BEVEL_30" in2="Texture_10" result="BEVEL_40"></feDisplacementMap>
    <feComposite operator="arithmetic" k2="-1" k3="1" in="Texture_20" in2="BEVEL_40" result="BEVEL_50"></feComposite>
    <feOffset dx="-7" dy="-7" in="BEVEL_50" result="BEVEL_60"></feOffset>
    <feComposite operator="out" in="BEVEL_60" in2="OUTLINE_10" result="BEVEL_70"></feComposite>
    <!-- BEVEL OUTLINE END -->

    <!-- BEVEL FILL -->
    <feOffset dx="-9" dy="-9" in="BEVEL_10" result="BEVEL-FILL_10"></feOffset>
    <feComposite operator="out" in="BEVEL-FILL_10" in2="OUTLINE_10" result="BEVEL-FILL_20"></feComposite>
    <feDisplacementMap scale="17" in="BEVEL-FILL_20" in2="Texture_10" result="BEVEL-FILL_30"></feDisplacementMap>
    <feComposite operator="in" in="COLOR-red" in2="BEVEL-FILL_30" result="BEVEL-FILL_50"></feComposite> <!-- -->
    <!-- BEVEL FILL END-->

    <feMerge result="merge2">
     <feMergeNode in="BEVEL-FILL_50"></feMergeNode>
     <feMergeNode in="BEVEL_70"></feMergeNode>
     <feMergeNode in="FILL_50"></feMergeNode>
      <feMergeNode in="OUTLINE_40"></feMergeNode>
    </feMerge>
  </filter>
</defs>
<g filter="url(#editing-scratch)"><g transform="translate(40.81501463055611, 104.76000022888184)"><path d="M0.45-0.32L0.45-0.32L8.51-42.24L8.51-42.24Q16.06-42.88 20.93-42.88L20.93-42.88L20.93-42.88Q25.79-42.88 28.93-42.46L28.93-42.46L28.93-42.46Q32.06-42.05 34.18-40.96L34.18-40.96L34.18-40.96Q38.40-38.91 38.40-33.28L38.40-33.28L38.40-33.28Q38.40-30.02 35.58-27.26L35.58-27.26L35.58-27.26Q32.96-24.77 30.08-24.19L30.08-24.19L30.08-24.19Q33.15-23.68 35.33-21.38L35.33-21.38L35.33-21.38Q37.63-18.94 37.63-15.17L37.63-15.17L37.63-15.17Q37.63-7.87 32.19-3.62L32.19-3.62L32.19-3.62Q26.75 0.64 16.06 0.64L16.06 0.64L16.06 0.64Q8.70 0.64 0.45-0.32ZM17.86-20.61L14.66-4.03L14.66-4.03Q15.23-3.97 15.36-3.97L15.36-3.97L15.94-3.97L15.94-3.97Q21.18-3.97 23.42-7.42L23.42-7.42L23.42-7.42Q25.09-10.11 25.09-15.04L25.09-15.04L25.09-15.04Q25.09-17.66 23.39-19.07L23.39-19.07L23.39-19.07Q21.70-20.48 17.86-20.61L17.86-20.61ZM27.58-33.22L27.58-33.22L27.58-33.22Q27.58-38.53 22.46-38.53L22.46-38.53L21.89-38.53L21.89-38.53Q21.63-38.53 21.25-38.46L21.25-38.46L18.69-24.96L19.33-24.96L19.33-24.96Q27.58-25.15 27.58-33.22ZM67.78-10.82L67.78-10.82L67.78-10.82Q69.38-9.73 69.38-7.33L69.38-7.33L69.38-7.33Q69.38-4.93 68.16-3.39L68.16-3.39L68.16-3.39Q66.94-1.86 64.96-0.83L64.96-0.83L64.96-0.83Q60.86 1.28 56.45 1.28L56.45 1.28L56.45 1.28Q52.03 1.28 49.44 0.32L49.44 0.32L49.44 0.32Q46.85-0.64 45.12-2.43L45.12-2.43L45.12-2.43Q41.73-5.82 41.73-12.03L41.73-12.03L41.73-12.03Q41.73-21.70 46.98-27.58L46.98-27.58L46.98-27.58Q52.61-33.92 62.40-33.92L62.40-33.92L62.40-33.92Q68.48-33.92 71.49-31.36L71.49-31.36L71.49-31.36Q73.73-29.44 73.73-26.30L73.73-26.30L73.73-26.30Q73.73-15.04 54.27-15.04L54.27-15.04L54.27-15.04Q54.02-13.38 54.02-11.97L54.02-11.97L54.02-11.97Q54.02-9.02 55.33-7.90L55.33-7.90L55.33-7.90Q56.64-6.78 59.07-6.78L59.07-6.78L59.07-6.78Q61.50-6.78 64.10-7.90L64.10-7.90L64.10-7.90Q66.69-9.02 67.78-10.82ZM54.72-17.79L54.72-17.79L54.72-17.79Q59.26-17.79 61.89-20.61L61.89-20.61L61.89-20.61Q64.51-23.30 64.51-27.58L64.51-27.58L64.51-27.58Q64.51-29.06 63.97-29.86L63.97-29.86L63.97-29.86Q63.42-30.66 62.34-30.66L62.34-30.66L62.34-30.66Q61.25-30.66 60.32-30.24L60.32-30.24L60.32-30.24Q59.39-29.82 58.43-28.42L58.43-28.42L58.43-28.42Q56.06-25.22 54.72-17.79ZM102.21 0L88.51 0L96.32-42.05L96.32-42.05Q102.66-42.75 111.90-42.75L111.90-42.75L111.90-42.75Q121.15-42.75 125.44-40.06L125.44-40.06L125.44-40.06Q129.73-37.38 129.73-31.97L129.73-31.97L129.73-31.97Q129.73-26.56 126.94-23.17L126.94-23.17L126.94-23.17Q124.16-19.78 119.36-18.69L119.36-18.69L119.36-18.69Q120.45-13.38 122.94-9.09L122.94-9.09L122.94-9.09Q125.25-5.06 127.94-3.78L127.94-3.78L127.94-3.78Q126.98-1.09 125.02 0.10L125.02 0.10L125.02 0.10Q123.07 1.28 120.29 1.28L120.29 1.28L120.29 1.28Q117.50 1.28 115.33-0.35L115.33-0.35L115.33-0.35Q113.15-1.98 111.42-4.99L111.42-4.99L111.42-4.99Q107.78-11.52 107.39-21.82L107.39-21.82L107.84-21.82L107.84-21.82Q112.58-21.95 114.94-24.42L114.94-24.42L114.94-24.42Q117.31-26.88 117.31-32.06L117.31-32.06L117.31-32.06Q117.31-38.53 111.87-38.78L111.87-38.78L110.46-38.78L110.46-38.78Q109.89-38.78 109.57-38.72L109.57-38.72L102.21 0ZM148.03-3.52L148.03-3.52L148.03-3.52Q146.05 1.28 139.71 1.28L139.71 1.28L139.71 1.28Q136.45 1.28 134.40-0.96L134.40-0.96L134.40-0.96Q132.67-2.94 132.67-4.93L132.67-4.93L132.67-4.93Q132.67-10.11 135.04-20.22L135.04-20.22L137.41-32.64L150.40-33.92L146.50-13.70L146.50-13.70Q145.41-8.96 145.41-7.30L145.41-7.30L145.41-7.30Q145.41-3.65 148.03-3.52ZM138.56-41.54L138.56-41.54L138.56-41.54Q138.56-44.03 140.64-45.38L140.64-45.38L140.64-45.38Q142.72-46.72 145.73-46.72L145.73-46.72L145.73-46.72Q148.74-46.72 150.56-45.38L150.56-45.38L150.56-45.38Q152.38-44.03 152.38-41.54L152.38-41.54L152.38-41.54Q152.38-39.04 150.37-37.76L150.37-37.76L150.37-37.76Q148.35-36.48 145.34-36.48L145.34-36.48L145.34-36.48Q142.34-36.48 140.45-37.76L140.45-37.76L140.45-37.76Q138.56-39.04 138.56-41.54ZM158.02-26.75L158.02-26.75L158.02-26.75Q160.19-29.82 163.49-31.87L163.49-31.87L163.49-31.87Q166.78-33.92 170.82-33.92L170.82-33.92L170.82-33.92Q174.85-33.92 176.77-32.64L176.77-32.64L189.31-33.92L184.96-9.34L184.96-9.34Q182.72 3.20 177.98 8.13L177.98 8.13L177.98 8.13Q173.44 12.80 164.61 12.80L164.61 12.80L164.61 12.80Q157.89 12.80 154.05 10.69L154.05 10.69L154.05 10.69Q150.21 8.58 150.21 5.06L150.21 5.06L150.21 5.06Q150.21 2.43 152.19 0.93L152.19 0.93L152.19 0.93Q154.18-0.58 157.25-0.58L157.25-0.58L157.25-0.58Q159.94-0.58 161.98 0.64L161.98 0.64L161.98 0.64Q163.20 1.28 163.78 2.18L163.78 2.18L163.78 2.18Q162.30 3.46 162.30 5.57L162.30 5.57L162.30 5.57Q162.30 8.32 164.86 8.32L164.86 8.32L164.86 8.32Q169.15 8.32 171.58-1.79L171.58-1.79L171.58-1.79Q172.29-4.54 172.86-7.30L172.86-7.30L172.86-7.30Q169.98-3.78 163.46-3.78L163.46-3.78L163.46-3.78Q158.91-3.78 156.29-5.95L156.29-5.95L156.29-5.95Q153.66-8.13 153.66-13.25L153.66-13.25L153.66-13.25Q153.66-16.45 154.75-20.06L154.75-20.06L154.75-20.06Q155.84-23.68 158.02-26.75ZM166.34-13.06L166.34-13.06L166.34-13.06Q166.34-8.70 168.58-8.70L168.58-8.70L168.58-8.70Q170.11-8.70 171.58-10.37L171.58-10.37L171.58-10.37Q172.74-11.71 173.18-13.70L173.18-13.70L176.45-30.14L176.45-30.14Q176.13-30.21 175.81-30.34L175.81-30.34L175.81-30.34Q175.17-30.59 174.34-30.59L174.34-30.59L174.34-30.59Q170.43-30.59 168.13-24.19L168.13-24.19L168.13-24.19Q166.34-19.20 166.34-13.06ZM224.00-7.10L224.00-7.10L224.00-7.10Q224.00-4.29 226.88-3.46L226.88-3.46L226.88-3.46Q226.18-1.09 223.42 0.19L223.42 0.19L223.42 0.19Q221.12 1.28 218.59 1.28L218.59 1.28L218.59 1.28Q216.06 1.28 214.75 0.61L214.75 0.61L214.75 0.61Q213.44-0.06 212.74-1.15L212.74-1.15L212.74-1.15Q211.58-2.82 211.58-5.95L211.58-5.95L211.58-5.95Q211.58-7.81 212.61-12.93L212.61-12.93L213.50-17.79L213.50-17.79Q214.59-23.36 214.59-25.41L214.59-25.41L214.59-25.41Q214.59-28.99 212.61-28.99L212.61-28.99L212.61-28.99Q210.11-28.99 208.51-25.34L208.51-25.34L208.51-25.34Q207.87-23.94 207.42-21.82L207.42-21.82L203.07 0L190.21 1.28L199.23-44.80L212.10-46.08L211.58-43.52L211.58-43.52Q209.79-33.66 208.26-30.34L208.26-30.34L208.26-30.34Q211.84-33.92 218.43-33.92L218.43-33.92L218.43-33.92Q225.41-33.92 226.69-29.31L226.69-29.31L226.69-29.31Q227.14-27.84 227.14-26.56L227.14-26.56L227.14-26.56Q227.14-25.28 227.04-24.29L227.04-24.29L227.04-24.29Q226.94-23.30 226.62-21.50L226.62-21.50L225.79-16.90L224.32-9.66L224.32-9.66Q224.00-8.19 224.00-7.10ZM233.09-6.40L233.09-6.40L233.09-6.40Q233.09-8.13 233.98-12.48L233.98-12.48L237.38-29.76L233.60-29.76L233.86-31.68L233.86-31.68Q241.54-33.98 248.96-39.62L248.96-39.62L252.03-39.62L250.50-32.64L255.49-32.64L254.91-29.76L249.98-29.76L246.72-12.48L246.72-12.48Q245.89-8.51 245.89-7.17L245.89-7.17L245.89-7.17Q245.89-4.10 248.58-3.46L248.58-3.46L248.58-3.46Q247.94-1.28 245.63 0L245.63 0L245.63 0Q243.33 1.28 240.06 1.28L240.06 1.28L240.06 1.28Q236.80 1.28 234.94-0.77L234.94-0.77L234.94-0.77Q233.09-2.82 233.09-6.40ZM267.71-0.32L267.71-0.32L275.78-42.24L275.78-42.24Q283.33-42.88 288.19-42.88L288.19-42.88L288.19-42.88Q293.06-42.88 296.19-42.46L296.19-42.46L296.19-42.46Q299.33-42.05 301.44-40.96L301.44-40.96L301.44-40.96Q305.66-38.91 305.66-33.28L305.66-33.28L305.66-33.28Q305.66-30.02 302.85-27.26L302.85-27.26L302.85-27.26Q300.22-24.77 297.34-24.19L297.34-24.19L297.34-24.19Q300.42-23.68 302.59-21.38L302.59-21.38L302.59-21.38Q304.90-18.94 304.90-15.17L304.90-15.17L304.90-15.17Q304.90-7.87 299.46-3.62L299.46-3.62L299.46-3.62Q294.02 0.64 283.33 0.64L283.33 0.64L283.33 0.64Q275.97 0.64 267.71-0.32ZM285.12-20.61L281.92-4.03L281.92-4.03Q282.50-3.97 282.62-3.97L282.62-3.97L283.20-3.97L283.20-3.97Q288.45-3.97 290.69-7.42L290.69-7.42L290.69-7.42Q292.35-10.11 292.35-15.04L292.35-15.04L292.35-15.04Q292.35-17.66 290.66-19.07L290.66-19.07L290.66-19.07Q288.96-20.48 285.12-20.61L285.12-20.61ZM294.85-33.22L294.85-33.22L294.85-33.22Q294.85-38.53 289.73-38.53L289.73-38.53L289.15-38.53L289.15-38.53Q288.90-38.53 288.51-38.46L288.51-38.46L285.95-24.96L286.59-24.96L286.59-24.96Q294.85-25.15 294.85-33.22ZM311.90-1.92L311.90-1.92L311.90-1.92Q310.40-3.58 309.73-6.21L309.73-6.21L309.73-6.21Q309.06-8.83 309.06-13.12L309.06-13.12L309.06-13.12Q309.06-17.41 310.53-21.31L310.53-21.31L310.53-21.31Q312.00-25.22 314.69-28.03L314.69-28.03L314.69-28.03Q320.19-33.92 329.28-33.92L329.28-33.92L329.28-33.92Q332.54-33.92 334.91-32.83L334.91-32.83L345.86-33.92L341.12-8.96L341.12-8.96Q340.93-8.19 340.93-6.78L340.93-6.78L340.93-6.78Q340.93-5.38 341.79-4.48L341.79-4.48L341.79-4.48Q342.66-3.58 343.94-3.46L343.94-3.46L343.94-3.46Q343.30-1.28 340.96 0L340.96 0L340.96 0Q338.62 1.28 336.00 1.28L336.00 1.28L336.00 1.28Q333.38 1.28 331.62 0.29L331.62 0.29L331.62 0.29Q329.86-0.70 329.34-2.37L329.34-2.37L329.34-2.37Q328.32-0.77 326.14 0.26L326.14 0.26L326.14 0.26Q323.97 1.28 321.06 1.28L321.06 1.28L321.06 1.28Q318.14 1.28 315.78 0.51L315.78 0.51L315.78 0.51Q313.41-0.26 311.90-1.92ZM325.41-27.90L325.41-27.90L325.41-27.90Q324.67-26.75 324.03-24.80L324.03-24.80L324.03-24.80Q323.39-22.85 322.34-17.63L322.34-17.63L322.34-17.63Q321.28-12.42 321.28-8.70L321.28-8.70L321.28-8.70Q321.28-4.99 321.86-3.90L321.86-3.90L321.86-3.90Q322.43-2.82 323.46-2.82L323.46-2.82L323.46-2.82Q325.50-2.82 327.01-4.77L327.01-4.77L327.01-4.77Q328.51-6.72 329.09-10.18L329.09-10.18L332.48-28.93L332.48-28.93Q331.14-30.08 329.57-30.08L329.57-30.08L329.57-30.08Q328.00-30.08 327.07-29.57L327.07-29.57L327.07-29.57Q326.14-29.06 325.41-27.90ZM380.48-26.62L380.48-26.62L380.48-26.62Q380.48-23.94 378.24-22.27L378.24-22.27L378.24-22.27Q376.00-20.61 372.35-20.61L372.35-20.61L372.35-20.61Q370.82-20.61 369.92-21.06L369.92-21.06L369.92-21.06Q370.62-22.72 370.85-24.80L370.85-24.80L370.85-24.80Q371.07-26.88 371.07-27.46L371.07-27.46L371.07-27.46Q371.07-30.14 369.22-30.14L369.22-30.14L369.22-30.14Q367.94-30.14 366.50-28.54L366.50-28.54L366.50-28.54Q365.06-26.94 363.84-24.45L363.84-24.45L363.84-24.45Q361.15-18.69 361.15-12.86L361.15-12.86L361.15-12.86Q361.15-9.66 362.37-8.22L362.37-8.22L362.37-8.22Q363.58-6.78 366.27-6.78L366.27-6.78L366.27-6.78Q369.98-6.78 372.93-9.86L372.93-9.86L372.93-9.86Q373.76-10.82 374.21-11.90L374.21-11.90L374.21-11.90Q376.64-10.62 376.64-7.10L376.64-7.10L376.64-7.10Q376.64-3.52 372.67-1.15L372.67-1.15L372.67-1.15Q368.58 1.28 362.05 1.28L362.05 1.28L362.05 1.28Q349.06 1.28 349.06-12.48L349.06-12.48L349.06-12.48Q349.06-22.53 354.75-28.29L354.75-28.29L354.75-28.29Q360.26-33.92 370.37-33.92L370.37-33.92L370.37-33.92Q380.48-33.92 380.48-26.62ZM398.72-30.34L398.72-30.34L398.72-30.34Q402.18-33.92 409.47-33.92L409.47-33.92L409.47-33.92Q413.50-33.92 415.71-31.78L415.71-31.78L415.71-31.78Q417.92-29.63 417.92-25.70L417.92-25.70L417.92-25.70Q417.92-21.76 415.71-18.98L415.71-18.98L415.71-18.98Q413.50-16.19 409.41-15.04L409.41-15.04L409.41-15.04Q409.73-13.76 410.18-12.42L410.18-12.42L411.07-9.86L411.07-9.86Q412.29-6.59 413.25-5.44L413.25-5.44L413.25-5.44Q414.21-4.29 415.49-3.90L415.49-3.90L415.49-3.90Q414.78-1.28 412.22 0.13L412.22 0.13L412.22 0.13Q410.18 1.28 407.36 1.28L407.36 1.28L407.36 1.28Q399.10 1.28 398.02-11.46L398.02-11.46L398.02-11.46Q397.82-13.25 397.82-15.04L397.82-15.04L397.82-15.04Q401.02-15.94 403.26-18.94L403.26-18.94L403.26-18.94Q405.50-21.95 405.50-25.47L405.50-25.47L405.50-25.47Q405.50-28.99 403.01-28.99L403.01-28.99L403.01-28.99Q401.22-28.99 399.81-27.01L399.81-27.01L399.81-27.01Q398.40-25.02 397.76-21.63L397.76-21.63L393.54 0L380.61 1.28L389.57-44.80L402.43-46.08L400.96-38.46L400.96-38.46Q400.00-33.09 398.72-30.34Z" fill="#1f2aff"></path></g></g><style>text {
  font-size: 64px;
  font-family: Arial Black;
  dominant-baseline: central;
  text-anchor: middle;
}</style></svg>