<svg width="757.430029296875px" height="149.6px" xmlns="http://www.w3.org/2000/svg" viewBox="-128.7150146484375 0.20000000000000284 757.430029296875 149.6" style="background: rgb(253, 253, 253);" preserveAspectRatio="xMidYMid"><defs><filter id="editing-neon" x="-100%" y="-100%" width="300%" height="300%"><feFlood flood-color="#29a8ff" result="flood"></feFlood><feComposite operator="in" in="flood" in2="SourceAlpha" result="color"></feComposite><feFlood flood-color="#29a8ff" result="flood2"></feFlood><feComposite operator="in" in="flood2" in2="SourceAlpha" result="color2"></feComposite><feMorphology operator="dilate" radius="2" in="color" result="dilate"></feMorphology><feGaussianBlur stdDeviation="6" in="color" result="blur1"></feGaussianBlur><feGaussianBlur stdDeviation="2.5" in="color" result="blur2"></feGaussianBlur><feGaussianBlur stdDeviation="1" in="SourceAlpha" result="blur3"></feGaussianBlur><feGaussianBlur stdDeviation="6" in="dilate" result="blur4"></feGaussianBlur><feConvolveMatrix in="color2" result="conv" order="3,3" divisor="1" kernelMatrix="1 1 1  1 1 1  1 1 1"></feConvolveMatrix><feMerge><feMergeNode in="blur1"></feMergeNode><feMergeNode in="blur2"></feMergeNode><feMergeNode in="blur4"></feMergeNode><feMergeNode in="blur3"></feMergeNode><feMergeNode in="blur3"></feMergeNode><feMergeNode in="blur3"></feMergeNode><feMergeNode in="blur3"></feMergeNode><feMergeNode in="conv"></feMergeNode><feMergeNode in="SourceGraphic"></feMergeNode></feMerge></filter></defs><g filter="url(#editing-neon)"><g transform="translate(-18.629974514245987, 113.13000297546387)"><path d="M33.37-37.88L33.37-37.88L33.37-37.88Q34.60-40.34 34.60-42.64L34.60-42.64L34.60-42.64Q34.60-44.94 34.36-46.21L34.36-46.21L34.36-46.21Q34.11-47.48 33.54-48.46L33.54-48.46L33.54-48.46Q32.31-50.59 29.85-50.59L29.85-50.59L29.85-50.59Q26.81-50.59 24.35-48.38L24.35-48.38L24.35-48.38Q21.73-46.08 21.73-42.48L21.73-42.48L21.73-42.48Q21.73-40.18 23.33-38.42L23.33-38.42L23.33-38.42Q24.93-36.65 27.39-35.01L27.39-35.01L27.39-35.01Q29.85-33.37 32.64-31.73L32.64-31.73L32.64-31.73Q35.42-30.09 37.88-28.13L37.88-28.13L37.88-28.13Q43.54-23.62 43.54-17.55L43.54-17.55L43.54-17.55Q43.54-13.45 41.37-9.96L41.37-9.96L41.37-9.96Q39.20-6.48 35.59-3.94L35.59-3.94L35.59-3.94Q27.72 1.64 17.30 1.64L17.30 1.64L17.30 1.64Q8.86 1.64 4.51-1.11L4.51-1.11L4.51-1.11Q0.16-3.85 0.16-8.04L0.16-8.04L0.16-8.04Q0.16-15.50 5.99-17.38L5.99-17.38L5.99-17.38Q7.63-17.96 10.13-17.96L10.13-17.96L10.13-17.96Q12.63-17.96 15.50-16.89L15.50-16.89L15.50-16.89Q14.19-13.53 14.19-10.50L14.19-10.50L14.19-10.50Q14.19-3.94 18.86-3.94L18.86-3.94L18.86-3.94Q21.89-3.94 24.39-6.15L24.39-6.15L24.39-6.15Q26.90-8.36 26.90-10.87L26.90-10.87L26.90-10.87Q26.90-13.37 25.30-15.17L25.30-15.17L25.30-15.17Q23.70-16.97 21.32-18.41L21.32-18.41L21.32-18.41Q18.94-19.84 16.20-21.24L16.20-21.24L16.20-21.24Q13.45-22.63 11.07-24.60L11.07-24.60L11.07-24.60Q5.49-29.11 5.49-36.33L5.49-36.33L5.49-36.33Q5.49-41 7.79-44.65L7.79-44.65L7.79-44.65Q10.09-48.30 13.78-50.76L13.78-50.76L13.78-50.76Q21.16-55.76 30.22-55.76L30.22-55.76L30.22-55.76Q39.28-55.76 43.66-53.05L43.66-53.05L43.66-53.05Q48.05-50.35 48.05-45.76L48.05-45.76L48.05-45.76Q48.05-41.74 44.94-39.20L44.94-39.20L44.94-39.20Q42.23-37.06 38.95-37.06L38.95-37.06L38.95-37.06Q35.67-37.06 33.37-37.88ZM51.09-8.20L51.09-8.20L51.09-8.20Q51.09-10.41 52.23-15.99L52.23-15.99L56.58-38.13L51.74-38.13L52.07-40.59L52.07-40.59Q61.91-43.54 71.42-50.76L71.42-50.76L75.36-50.76L73.39-41.82L79.79-41.82L79.05-38.13L72.73-38.13L68.55-15.99L68.55-15.99Q67.49-10.91 67.49-9.18L67.49-9.18L67.49-9.18Q67.49-5.25 70.93-4.43L70.93-4.43L70.93-4.43Q70.11-1.64 67.16 0L67.16 0L67.16 0Q64.21 1.64 60.02 1.64L60.02 1.64L60.02 1.64Q55.84 1.64 53.46-0.98L53.46-0.98L53.46-0.98Q51.09-3.61 51.09-8.20ZM82.61-2.46L82.61-2.46L82.61-2.46Q80.69-4.59 79.83-7.95L79.83-7.95L79.83-7.95Q78.97-11.32 78.97-16.81L78.97-16.81L78.97-16.81Q78.97-22.30 80.85-27.31L80.85-27.31L80.85-27.31Q82.74-32.31 86.18-35.92L86.18-35.92L86.18-35.92Q93.23-43.46 104.88-43.46L104.88-43.46L104.88-43.46Q109.06-43.46 112.09-42.07L112.09-42.07L126.12-43.46L120.05-11.48L120.05-11.48Q119.80-10.50 119.80-8.69L119.80-8.69L119.80-8.69Q119.80-6.89 120.91-5.74L120.91-5.74L120.91-5.74Q122.02-4.59 123.66-4.43L123.66-4.43L123.66-4.43Q122.84-1.64 119.84 0L119.84 0L119.84 0Q116.85 1.64 113.49 1.64L113.49 1.64L113.49 1.64Q110.13 1.64 107.87 0.37L107.87 0.37L107.87 0.37Q105.62-0.90 104.96-3.03L104.96-3.03L104.96-3.03Q103.65-0.98 100.86 0.33L100.86 0.33L100.86 0.33Q98.07 1.64 94.34 1.64L94.34 1.64L94.34 1.64Q90.61 1.64 87.58 0.66L87.58 0.66L87.58 0.66Q84.54-0.33 82.61-2.46ZM99.92-35.75L99.92-35.75L99.92-35.75Q98.97-34.28 98.15-31.78L98.15-31.78L98.15-31.78Q97.33-29.27 95.98-22.59L95.98-22.59L95.98-22.59Q94.63-15.91 94.63-11.15L94.63-11.15L94.63-11.15Q94.63-6.40 95.37-5.00L95.37-5.00L95.37-5.00Q96.10-3.61 97.42-3.61L97.42-3.61L97.42-3.61Q100.04-3.61 101.97-6.11L101.97-6.11L101.97-6.11Q103.89-8.61 104.63-13.04L104.63-13.04L108.98-37.06L108.98-37.06Q107.26-38.54 105.25-38.54L105.25-38.54L105.25-38.54Q103.24-38.54 102.05-37.88L102.05-37.88L102.05-37.88Q100.86-37.23 99.92-35.75ZM156.21-23.04L156.21-23.04L156.21-23.04Q159.16-28.29 159.16-33.62L159.16-33.62L159.16-33.62Q159.16-37.15 156.62-37.15L156.62-37.15L156.62-37.15Q154.65-37.15 152.60-33.78L152.60-33.78L152.60-33.78Q150.47-30.42 149.81-26.08L149.81-26.08L145.55 0L128.58 1.64L136.94-41.82L150.47-43.46L148.99-35.18L148.99-35.18Q153.01-43.46 162.03-43.46L162.03-43.46L162.03-43.46Q166.79-43.46 169.37-41L169.37-41L169.37-41Q171.95-38.54 171.95-33.50L171.95-33.50L171.95-33.50Q171.95-28.45 168.63-25.26L168.63-25.26L168.63-25.26Q165.31-22.06 159.65-22.06L159.65-22.06L159.65-22.06Q157.19-22.06 156.21-23.04ZM174.58-8.20L174.58-8.20L174.58-8.20Q174.58-10.41 175.73-15.99L175.73-15.99L180.07-38.13L175.23-38.13L175.56-40.59L175.56-40.59Q185.40-43.54 194.91-50.76L194.91-50.76L198.85-50.76L196.88-41.82L203.28-41.82L202.54-38.13L196.23-38.13L192.04-15.99L192.04-15.99Q190.98-10.91 190.98-9.18L190.98-9.18L190.98-9.18Q190.98-5.25 194.42-4.43L194.42-4.43L194.42-4.43Q193.60-1.64 190.65 0L190.65 0L190.65 0Q187.70 1.64 183.52 1.64L183.52 1.64L183.52 1.64Q179.33 1.64 176.96-0.98L176.96-0.98L176.96-0.98Q174.58-3.61 174.58-8.20ZM222.55-4.51L222.55-4.51L222.55-4.51Q220.01 1.64 211.89 1.64L211.89 1.64L211.89 1.64Q207.71 1.64 205.08-1.23L205.08-1.23L205.08-1.23Q202.87-3.77 202.87-6.31L202.87-6.31L202.87-6.31Q202.87-12.96 205.90-25.91L205.90-25.91L208.94-41.82L225.58-43.46L220.58-17.55L220.58-17.55Q219.19-11.48 219.19-9.35L219.19-9.35L219.19-9.35Q219.19-4.67 222.55-4.51ZM210.41-53.22L210.41-53.22L210.41-53.22Q210.41-56.42 213.08-58.14L213.08-58.14L213.08-58.14Q215.74-59.86 219.60-59.86L219.60-59.86L219.60-59.86Q223.45-59.86 225.79-58.14L225.79-58.14L225.79-58.14Q228.12-56.42 228.12-53.22L228.12-53.22L228.12-53.22Q228.12-50.02 225.54-48.38L225.54-48.38L225.54-48.38Q222.96-46.74 219.10-46.74L219.10-46.74L219.10-46.74Q215.25-46.74 212.83-48.38L212.83-48.38L212.83-48.38Q210.41-50.02 210.41-53.22ZM264.20 1.64L264.20 1.64L264.20 1.64Q254.28 1.64 254.28-6.07L254.28-6.07L254.28-6.07Q254.36-8.20 255.02-11.81L255.02-11.81L256.50-19.35L256.50-19.35Q258.71-30.01 258.71-32.39L258.71-32.39L258.71-32.39Q258.71-37.15 255.92-37.15L255.92-37.15L255.92-37.15Q251.25-37.15 248.79-24.93L248.79-24.93L243.95 0L227.47 1.64L236.00-41.90L249.44-43.46L248.13-35.42L248.13-35.42Q251.99-43.46 263.79-43.46L263.79-43.46L263.79-43.46Q269.53-43.46 271.95-41.04L271.95-41.04L271.95-41.04Q274.37-38.62 274.37-33.21L274.37-33.21L274.37-33.21Q274.37-28.13 271.75-16.24L271.75-16.24L271.75-16.24Q270.52-10.91 270.52-8.90L270.52-8.90L270.52-8.90Q270.52-6.89 271.63-5.74L271.63-5.74L271.63-5.74Q272.73-4.59 274.37-4.43L274.37-4.43L274.37-4.43Q273.55-1.64 270.72 0L270.72 0L270.72 0Q267.89 1.64 264.20 1.64ZM286.75-34.28L286.75-34.28L286.75-34.28Q289.54-38.21 293.76-40.84L293.76-40.84L293.76-40.84Q297.99-43.46 303.15-43.46L303.15-43.46L303.15-43.46Q308.32-43.46 310.78-41.82L310.78-41.82L326.85-43.46L321.28-11.97L321.28-11.97Q318.41 4.10 312.34 10.41L312.34 10.41L312.34 10.41Q306.52 16.40 295.20 16.40L295.20 16.40L295.20 16.40Q286.59 16.40 281.67 13.69L281.67 13.69L281.67 13.69Q276.75 10.99 276.75 6.48L276.75 6.48L276.75 6.48Q276.75 3.12 279.29 1.19L279.29 1.19L279.29 1.19Q281.83-0.74 285.77-0.74L285.77-0.74L285.77-0.74Q289.21-0.74 291.84 0.82L291.84 0.82L291.84 0.82Q293.40 1.64 294.13 2.79L294.13 2.79L294.13 2.79Q292.25 4.43 292.25 7.13L292.25 7.13L292.25 7.13Q292.25 10.66 295.53 10.66L295.53 10.66L295.53 10.66Q301.02 10.66 304.14-2.30L304.14-2.30L304.14-2.30Q305.04-5.82 305.78-9.35L305.78-9.35L305.78-9.35Q302.09-4.84 293.72-4.84L293.72-4.84L293.72-4.84Q287.90-4.84 284.54-7.63L284.54-7.63L284.54-7.63Q281.18-10.41 281.18-16.97L281.18-16.97L281.18-16.97Q281.18-21.07 282.57-25.71L282.57-25.71L282.57-25.71Q283.97-30.34 286.75-34.28ZM297.41-16.73L297.41-16.73L297.41-16.73Q297.41-11.15 300.28-11.15L300.28-11.15L300.28-11.15Q302.25-11.15 304.14-13.28L304.14-13.28L304.14-13.28Q305.61-15.01 306.19-17.55L306.19-17.55L310.37-38.62L310.37-38.62Q309.96-38.70 309.55-38.87L309.55-38.87L309.55-38.87Q308.73-39.20 307.66-39.20L307.66-39.20L307.66-39.20Q302.66-39.20 299.71-31.00L299.71-31.00L299.71-31.00Q297.41-24.60 297.41-16.73ZM378.92-37.88L378.92-37.88L378.92-37.88Q380.15-40.34 380.15-42.64L380.15-42.64L380.15-42.64Q380.15-44.94 379.91-46.21L379.91-46.21L379.91-46.21Q379.66-47.48 379.09-48.46L379.09-48.46L379.09-48.46Q377.86-50.59 375.40-50.59L375.40-50.59L375.40-50.59Q372.36-50.59 369.90-48.38L369.90-48.38L369.90-48.38Q367.28-46.08 367.28-42.48L367.28-42.48L367.28-42.48Q367.28-40.18 368.88-38.42L368.88-38.42L368.88-38.42Q370.48-36.65 372.94-35.01L372.94-35.01L372.94-35.01Q375.40-33.37 378.18-31.73L378.18-31.73L378.18-31.73Q380.97-30.09 383.43-28.13L383.43-28.13L383.43-28.13Q389.09-23.62 389.09-17.55L389.09-17.55L389.09-17.55Q389.09-13.45 386.92-9.96L386.92-9.96L386.92-9.96Q384.74-6.48 381.14-3.94L381.14-3.94L381.14-3.94Q373.26 1.64 362.85 1.64L362.85 1.64L362.85 1.64Q354.40 1.64 350.06-1.11L350.06-1.11L350.06-1.11Q345.71-3.85 345.71-8.04L345.71-8.04L345.71-8.04Q345.71-15.50 351.53-17.38L351.53-17.38L351.53-17.38Q353.17-17.96 355.68-17.96L355.68-17.96L355.68-17.96Q358.18-17.96 361.05-16.89L361.05-16.89L361.05-16.89Q359.73-13.53 359.73-10.50L359.73-10.50L359.73-10.50Q359.73-3.94 364.41-3.94L364.41-3.94L364.41-3.94Q367.44-3.94 369.94-6.15L369.94-6.15L369.94-6.15Q372.44-8.36 372.44-10.87L372.44-10.87L372.44-10.87Q372.44-13.37 370.85-15.17L370.85-15.17L370.85-15.17Q369.25-16.97 366.87-18.41L366.87-18.41L366.87-18.41Q364.49-19.84 361.74-21.24L361.74-21.24L361.74-21.24Q359.00-22.63 356.62-24.60L356.62-24.60L356.62-24.60Q351.04-29.11 351.04-36.33L351.04-36.33L351.04-36.33Q351.04-41 353.34-44.65L353.34-44.65L353.34-44.65Q355.63-48.30 359.32-50.76L359.32-50.76L359.32-50.76Q366.70-55.76 375.76-55.76L375.76-55.76L375.76-55.76Q384.83-55.76 389.21-53.05L389.21-53.05L389.21-53.05Q393.60-50.35 393.60-45.76L393.60-45.76L393.60-45.76Q393.60-41.74 390.48-39.20L390.48-39.20L390.48-39.20Q387.78-37.06 384.50-37.06L384.50-37.06L384.50-37.06Q381.22-37.06 378.92-37.88ZM413.20 1.64L413.20 1.64L413.20 1.64Q395.16 1.64 395.16-15.33L395.16-15.33L395.16-15.33Q395.16-27.39 401.80-35.18L401.80-35.18L401.80-35.18Q408.85-43.46 421.07-43.46L421.07-43.46L421.07-43.46Q429.93-43.46 434.44-39.36L434.44-39.36L434.44-39.36Q438.95-35.26 438.95-26.65L438.95-26.65L438.95-26.65Q438.95-13.53 431.89-5.90L431.89-5.90L431.89-5.90Q425.01 1.64 413.20 1.64ZM415.33-34.03L415.33-34.03L415.33-34.03Q414.35-31.82 413.57-28.50L413.57-28.50L413.57-28.50Q412.79-25.17 411.80-19.93L411.80-19.93L411.80-19.93Q410.82-14.68 410.82-8.20L410.82-8.20L410.82-8.20Q410.82-6.07 411.52-4.67L411.52-4.67L411.52-4.67Q412.21-3.28 414.10-3.28L414.10-3.28L414.10-3.28Q415.99-3.28 417.18-4.18L417.18-4.18L417.18-4.18Q418.36-5.08 419.27-7.22L419.27-7.22L419.27-7.22Q420.91-10.99 422.22-18.00L422.22-18.00L422.22-18.00Q423.53-25.01 423.65-28.04L423.65-28.04L423.65-28.04Q423.78-31.08 423.78-33.33L423.78-33.33L423.78-33.33Q423.78-35.59 423.12-37.06L423.12-37.06L423.12-37.06Q422.46-38.54 420.62-38.54L420.62-38.54L420.62-38.54Q418.77-38.54 417.54-37.39L417.54-37.39L417.54-37.39Q416.31-36.24 415.33-34.03ZM461.66 1.64L461.66 1.64L461.66 1.64Q443.62 1.64 443.62-15.33L443.62-15.33L443.62-15.33Q443.62-27.39 450.26-35.18L450.26-35.18L450.26-35.18Q457.31-43.46 469.53-43.46L469.53-43.46L469.53-43.46Q478.39-43.46 482.90-39.36L482.90-39.36L482.90-39.36Q487.41-35.26 487.41-26.65L487.41-26.65L487.41-26.65Q487.41-13.53 480.36-5.90L480.36-5.90L480.36-5.90Q473.47 1.64 461.66 1.64ZM463.79-34.03L463.79-34.03L463.79-34.03Q462.81-31.82 462.03-28.50L462.03-28.50L462.03-28.50Q461.25-25.17 460.27-19.93L460.27-19.93L460.27-19.93Q459.28-14.68 459.28-8.20L459.28-8.20L459.28-8.20Q459.28-6.07 459.98-4.67L459.98-4.67L459.98-4.67Q460.68-3.28 462.56-3.28L462.56-3.28L462.56-3.28Q464.45-3.28 465.64-4.18L465.64-4.18L465.64-4.18Q466.83-5.08 467.73-7.22L467.73-7.22L467.73-7.22Q469.37-10.99 470.68-18.00L470.68-18.00L470.68-18.00Q471.99-25.01 472.12-28.04L472.12-28.04L472.12-28.04Q472.24-31.08 472.24-33.33L472.24-33.33L472.24-33.33Q472.24-35.59 471.58-37.06L471.58-37.06L471.58-37.06Q470.93-38.54 469.08-38.54L469.08-38.54L469.08-38.54Q467.24-38.54 466.01-37.39L466.01-37.39L466.01-37.39Q464.78-36.24 463.79-34.03ZM526.93 1.64L526.93 1.64L526.93 1.64Q517.01 1.64 517.01-6.07L517.01-6.07L517.01-6.07Q517.09-8.20 517.75-11.81L517.75-11.81L519.22-19.35L519.22-19.35Q521.44-30.01 521.44-32.39L521.44-32.39L521.44-32.39Q521.44-37.15 518.65-37.15L518.65-37.15L518.65-37.15Q513.98-37.15 511.52-24.93L511.52-24.93L506.68 0L490.20 1.64L498.72-41.90L512.17-43.46L510.86-35.42L510.86-35.42Q514.71-43.46 526.52-43.46L526.52-43.46L526.52-43.46Q532.26-43.46 534.68-41.04L534.68-41.04L534.68-41.04Q537.10-38.62 537.10-33.21L537.10-33.21L537.10-33.21Q537.10-28.13 534.48-16.24L534.48-16.24L534.48-16.24Q533.25-10.91 533.25-8.90L533.25-8.90L533.25-8.90Q533.25-6.89 534.35-5.74L534.35-5.74L534.35-5.74Q535.46-4.59 537.10-4.43L537.10-4.43L537.10-4.43Q536.28-1.64 533.45 0L533.45 0L533.45 0Q530.62 1.64 526.93 1.64Z" fill="none" stroke="#e4ffff" stroke-width="2.6"></path></g></g><style>text {
  font-size: 64px;
  font-family: Arial Black;
  dominant-baseline: central;
  text-anchor: middle;
}</style></svg>