<svg width="676.475px" height="136.16000366210938px" xmlns="http://www.w3.org/2000/svg" viewBox="-88.23750000000001 6.9199981689453125 676.475 136.16000366210938" style="background: rgba(0, 0, 0, 0);" preserveAspectRatio="xMidYMid"><defs>
  <filter id="editing-scratch" x="-100%" y="-100%" width="300%" height="300%">
    <!-- COLOR -->
    <feFlood flood-color="#ddd" flood-opacity="0.75" result="COLOR-blu"></feFlood>
    <feFlood flood-color="#666" flood-opacity="0.4" result="COLOR-red"></feFlood>
    <!-- COLOR END -->

    <!-- Texture -->
    <feTurbulence baseFrequency=".05" type="fractalNoise" numOctaves="3" seed="0" result="Texture_10"></feTurbulence>
    <feColorMatrix type="matrix" values="0 0 0 0 0,
    0 0 0 0 0,
    0 0 0 0 0,
    0 0 0 -2.1 1.1" in="Texture_10" result="Texture_20"></feColorMatrix>

    <feColorMatrix result="Texture_30" type="matrix" values="0 0 0 0 0,
    0 0 0 0 0,
    0 0 0 0 0,
    0 0 0 -1.7 1.8" in="Texture_10"></feColorMatrix>
    <!-- Texture -->

    <!-- FILL -->
    <feOffset dx="-3" dy="4" in="SourceAlpha" result="FILL_10"></feOffset>
    <feDisplacementMap scale="17" in="FILL_10" in2="Texture_10" result="FILL_20"></feDisplacementMap>
    <feComposite operator="in" in="Texture_30" in2="FILL_20" result="FILL_40"></feComposite>
    <feComposite operator="in" in="COLOR-blu" in2="FILL_40" result="FILL_50"></feComposite>
    <!-- FILL END-->

    <!-- OUTLINE -->
    <feMorphology operator="dilate" radius="3" in="SourceGraphic" result="OUTLINE_10"></feMorphology>
    <feComposite operator="out" in="OUTLINE_10" in2="SourceGraphic" result="OUTLINE_20"></feComposite>
    <feDisplacementMap scale="7" in="OUTLINE_20" in2="Texture_10" result="OUTLINE_30"></feDisplacementMap>
    <feComposite operator="arithmetic" k2="-1" k3="1" in="Texture_20" in2="OUTLINE_30" result="OUTLINE_40"></feComposite>
    <!-- OUTLINE END-->

    <!-- BEVEL OUTLINE -->
    <feConvolveMatrix order="8,8" divisor="1" kernelMatrix="1 0 0 0 0 0 0 0 0 1 0 0 0 0 0 0 0 0 1 0 0 0 0 0 0 0 0 1 0 0 0 0 0 0 0 0 1 0 0 0 0 0 0 0 0 1 0 0 0 0 0 0 0 0 1 0 0 0 0 0 0 0 0 1 " in="SourceGraphic" result="BEVEL_10"></feConvolveMatrix>
    <feMorphology operator="dilate" radius="2" in="BEVEL_10" result="BEVEL_20"></feMorphology>
    <feComposite operator="out" in="BEVEL_20" in2="BEVEL_10" result="BEVEL_30"></feComposite>
    <feDisplacementMap scale="7" in="BEVEL_30" in2="Texture_10" result="BEVEL_40"></feDisplacementMap>
    <feComposite operator="arithmetic" k2="-1" k3="1" in="Texture_20" in2="BEVEL_40" result="BEVEL_50"></feComposite>
    <feOffset dx="-7" dy="-7" in="BEVEL_50" result="BEVEL_60"></feOffset>
    <feComposite operator="out" in="BEVEL_60" in2="OUTLINE_10" result="BEVEL_70"></feComposite>
    <!-- BEVEL OUTLINE END -->

    <!-- BEVEL FILL -->
    <feOffset dx="-9" dy="-9" in="BEVEL_10" result="BEVEL-FILL_10"></feOffset>
    <feComposite operator="out" in="BEVEL-FILL_10" in2="OUTLINE_10" result="BEVEL-FILL_20"></feComposite>
    <feDisplacementMap scale="17" in="BEVEL-FILL_20" in2="Texture_10" result="BEVEL-FILL_30"></feDisplacementMap>
    <feComposite operator="in" in="COLOR-red" in2="BEVEL-FILL_30" result="BEVEL-FILL_50"></feComposite> <!-- -->
    <!-- BEVEL FILL END-->

    <feMerge result="merge2">
     <feMergeNode in="BEVEL-FILL_50"></feMergeNode>
     <feMergeNode in="BEVEL_70"></feMergeNode>
     <feMergeNode in="FILL_50"></feMergeNode>
      <feMergeNode in="OUTLINE_40"></feMergeNode>
    </feMerge>
  </filter>
</defs>
<g filter="url(#editing-scratch)"><g transform="translate(10.850016206502914, 108.94499969482422)"><path d="M29.71-33.73L29.71-33.73L29.71-33.73Q30.81-35.92 30.81-37.96L30.81-37.96L30.81-37.96Q30.81-40.00 30.59-41.14L30.59-41.14L30.59-41.14Q30.37-42.27 29.86-43.14L29.86-43.14L29.86-43.14Q28.76-45.04 26.57-45.04L26.57-45.04L26.57-45.04Q23.87-45.04 21.68-43.07L21.68-43.07L21.68-43.07Q19.34-41.03 19.34-37.81L19.34-37.81L19.34-37.81Q19.34-35.77 20.77-34.20L20.77-34.20L20.77-34.20Q22.19-32.63 24.38-31.17L24.38-31.17L24.38-31.17Q26.57-29.71 29.05-28.25L29.05-28.25L29.05-28.25Q31.54-26.79 33.73-25.04L33.73-25.04L33.73-25.04Q38.76-21.02 38.76-15.62L38.76-15.62L38.76-15.62Q38.76-11.97 36.83-8.87L36.83-8.87L36.83-8.87Q34.89-5.77 31.68-3.50L31.68-3.50L31.68-3.50Q24.67 1.46 15.40 1.46L15.40 1.46L15.40 1.46Q7.88 1.46 4.01-0.99L4.01-0.99L4.01-0.99Q0.15-3.43 0.15-7.15L0.15-7.15L0.15-7.15Q0.15-13.80 5.33-15.48L5.33-15.48L5.33-15.48Q6.79-15.99 9.02-15.99L9.02-15.99L9.02-15.99Q11.24-15.99 13.80-15.04L13.80-15.04L13.80-15.04Q12.63-12.04 12.63-9.34L12.63-9.34L12.63-9.34Q12.63-3.50 16.79-3.50L16.79-3.50L16.79-3.50Q19.49-3.50 21.72-5.47L21.72-5.47L21.72-5.47Q23.94-7.45 23.94-9.67L23.94-9.67L23.94-9.67Q23.94-11.90 22.52-13.50L22.52-13.50L22.52-13.50Q21.10-15.11 18.98-16.39L18.98-16.39L18.98-16.39Q16.86-17.67 14.42-18.91L14.42-18.91L14.42-18.91Q11.97-20.15 9.85-21.90L9.85-21.90L9.85-21.90Q4.89-25.91 4.89-32.34L4.89-32.34L4.89-32.34Q4.89-36.50 6.93-39.75L6.93-39.75L6.93-39.75Q8.98-43.00 12.26-45.19L12.26-45.19L12.26-45.19Q18.83-49.64 26.90-49.64L26.90-49.64L26.90-49.64Q34.97-49.64 38.87-47.23L38.87-47.23L38.87-47.23Q42.78-44.82 42.78-40.73L42.78-40.73L42.78-40.73Q42.78-37.16 40.00-34.89L40.00-34.89L40.00-34.89Q37.59-33.00 34.67-33.00L34.67-33.00L34.67-33.00Q31.75-33.00 29.71-33.73ZM45.48-7.30L45.48-7.30L45.48-7.30Q45.48-9.27 46.50-14.23L46.50-14.23L50.37-33.95L46.06-33.95L46.35-36.13L46.35-36.13Q55.12-38.76 63.58-45.19L63.58-45.19L67.09-45.19L65.33-37.23L71.03-37.23L70.37-33.95L64.75-33.95L61.03-14.23L61.03-14.23Q60.08-9.71 60.08-8.18L60.08-8.18L60.08-8.18Q60.08-4.67 63.14-3.94L63.14-3.94L63.14-3.94Q62.41-1.46 59.79 0L59.79 0L59.79 0Q57.16 1.46 53.44 1.46L53.44 1.46L53.44 1.46Q49.71 1.46 47.60-0.88L47.60-0.88L47.60-0.88Q45.48-3.21 45.48-7.30ZM73.55-2.19L73.55-2.19L73.55-2.19Q71.83-4.09 71.07-7.08L71.07-7.08L71.07-7.08Q70.30-10.07 70.30-14.96L70.30-14.96L70.30-14.96Q70.30-19.86 71.98-24.31L71.98-24.31L71.98-24.31Q73.66-28.76 76.72-31.97L76.72-31.97L76.72-31.97Q83.00-38.69 93.37-38.69L93.37-38.69L93.37-38.69Q97.09-38.69 99.79-37.45L99.79-37.45L112.27-38.69L106.87-10.22L106.87-10.22Q106.65-9.34 106.65-7.74L106.65-7.74L106.65-7.74Q106.65-6.13 107.64-5.11L107.64-5.11L107.64-5.11Q108.62-4.09 110.08-3.94L110.08-3.94L110.08-3.94Q109.35-1.46 106.69 0L106.69 0L106.69 0Q104.03 1.46 101.03 1.46L101.03 1.46L101.03 1.46Q98.04 1.46 96.03 0.33L96.03 0.33L96.03 0.33Q94.02-0.80 93.44-2.70L93.44-2.70L93.44-2.70Q92.27-0.88 89.79 0.29L89.79 0.29L89.79 0.29Q87.31 1.46 83.99 1.46L83.99 1.46L83.99 1.46Q80.66 1.46 77.96 0.58L77.96 0.58L77.96 0.58Q75.26-0.29 73.55-2.19ZM88.95-31.83L88.95-31.83L88.95-31.83Q88.11-30.51 87.38-28.29L87.38-28.29L87.38-28.29Q86.65-26.06 85.45-20.11L85.45-20.11L85.45-20.11Q84.24-14.16 84.24-9.93L84.24-9.93L84.24-9.93Q84.24-5.69 84.90-4.45L84.90-4.45L84.90-4.45Q85.56-3.21 86.72-3.21L86.72-3.21L86.72-3.21Q89.06-3.21 90.78-5.44L90.78-5.44L90.78-5.44Q92.49-7.66 93.15-11.61L93.15-11.61L97.02-33.00L97.02-33.00Q95.48-34.31 93.70-34.31L93.70-34.31L93.70-34.31Q91.91-34.31 90.85-33.73L90.85-33.73L90.85-33.73Q89.79-33.14 88.95-31.83ZM139.06-20.51L139.06-20.51L139.06-20.51Q141.69-25.18 141.69-29.93L141.69-29.93L141.69-29.93Q141.69-33.07 139.43-33.07L139.43-33.07L139.43-33.07Q137.68-33.07 135.85-30.08L135.85-30.08L135.85-30.08Q133.95-27.08 133.37-23.21L133.37-23.21L129.57 0L114.46 1.46L121.91-37.23L133.95-38.69L132.64-31.32L132.64-31.32Q136.22-38.69 144.25-38.69L144.25-38.69L144.25-38.69Q148.48-38.69 150.78-36.50L150.78-36.50L150.78-36.50Q153.08-34.31 153.08-29.82L153.08-29.82L153.08-29.82Q153.08-25.33 150.12-22.48L150.12-22.48L150.12-22.48Q147.17-19.64 142.13-19.64L142.13-19.64L142.13-19.64Q139.94-19.64 139.06-20.51ZM155.42-7.30L155.42-7.30L155.42-7.30Q155.42-9.27 156.44-14.23L156.44-14.23L160.31-33.95L156.00-33.95L156.29-36.13L156.29-36.13Q165.05-38.76 173.52-45.19L173.52-45.19L177.02-45.19L175.27-37.23L180.97-37.23L180.31-33.95L174.69-33.95L170.97-14.23L170.97-14.23Q170.02-9.71 170.02-8.18L170.02-8.18L170.02-8.18Q170.02-4.67 173.08-3.94L173.08-3.94L173.08-3.94Q172.35-1.46 169.72 0L169.72 0L169.72 0Q167.10 1.46 163.37 1.46L163.37 1.46L163.37 1.46Q159.65 1.46 157.53-0.88L157.53-0.88L157.53-0.88Q155.42-3.21 155.42-7.30ZM198.12-4.01L198.12-4.01L198.12-4.01Q195.86 1.46 188.63 1.46L188.63 1.46L188.63 1.46Q184.91 1.46 182.57-1.09L182.57-1.09L182.57-1.09Q180.60-3.36 180.60-5.62L180.60-5.62L180.60-5.62Q180.60-11.53 183.30-23.07L183.30-23.07L186.00-37.23L200.82-38.69L196.37-15.62L196.37-15.62Q195.13-10.22 195.13-8.32L195.13-8.32L195.13-8.32Q195.13-4.16 198.12-4.01ZM187.32-47.38L187.32-47.38L187.32-47.38Q187.32-50.22 189.69-51.76L189.69-51.76L189.69-51.76Q192.06-53.29 195.49-53.29L195.49-53.29L195.49-53.29Q198.92-53.29 201.01-51.76L201.01-51.76L201.01-51.76Q203.09-50.22 203.09-47.38L203.09-47.38L203.09-47.38Q203.09-44.53 200.79-43.07L200.79-43.07L200.79-43.07Q198.49-41.61 195.06-41.61L195.06-41.61L195.06-41.61Q191.63-41.61 189.47-43.07L189.47-43.07L189.47-43.07Q187.32-44.53 187.32-47.38ZM235.21 1.46L235.21 1.46L235.21 1.46Q226.37 1.46 226.37-5.40L226.37-5.40L226.37-5.40Q226.45-7.30 227.03-10.51L227.03-10.51L228.34-17.23L228.34-17.23Q230.31-26.72 230.31-28.83L230.31-28.83L230.31-28.83Q230.31-33.07 227.83-33.07L227.83-33.07L227.83-33.07Q223.67-33.07 221.48-22.19L221.48-22.19L217.17 0L202.50 1.46L210.09-37.30L222.07-38.69L220.90-31.54L220.90-31.54Q224.33-38.69 234.84-38.69L234.84-38.69L234.84-38.69Q239.95-38.69 242.10-36.54L242.10-36.54L242.10-36.54Q244.26-34.38 244.26-29.56L244.26-29.56L244.26-29.56Q244.26-25.04 241.92-14.45L241.92-14.45L241.92-14.45Q240.83-9.71 240.83-7.92L240.83-7.92L240.83-7.92Q240.83-6.13 241.81-5.11L241.81-5.11L241.81-5.11Q242.80-4.09 244.26-3.94L244.26-3.94L244.26-3.94Q243.53-1.46 241.01 0L241.01 0L241.01 0Q238.49 1.46 235.21 1.46ZM255.28-30.51L255.28-30.51L255.28-30.51Q257.76-34.02 261.52-36.35L261.52-36.35L261.52-36.35Q265.28-38.69 269.88-38.69L269.88-38.69L269.88-38.69Q274.48-38.69 276.67-37.23L276.67-37.23L290.98-38.69L286.01-10.66L286.01-10.66Q283.46 3.65 278.06 9.27L278.06 9.27L278.06 9.27Q272.87 14.60 262.80 14.60L262.80 14.60L262.80 14.60Q255.13 14.60 250.75 12.19L250.75 12.19L250.75 12.19Q246.37 9.78 246.37 5.77L246.37 5.77L246.37 5.77Q246.37 2.77 248.64 1.06L248.64 1.06L248.64 1.06Q250.90-0.66 254.40-0.66L254.40-0.66L254.40-0.66Q257.47-0.66 259.81 0.73L259.81 0.73L259.81 0.73Q261.19 1.46 261.85 2.48L261.85 2.48L261.85 2.48Q260.17 3.94 260.17 6.35L260.17 6.35L260.17 6.35Q260.17 9.49 263.09 9.49L263.09 9.49L263.09 9.49Q267.98 9.49 270.76-2.04L270.76-2.04L270.76-2.04Q271.56-5.18 272.22-8.32L272.22-8.32L272.22-8.32Q268.93-4.31 261.49-4.31L261.49-4.31L261.49-4.31Q256.30-4.31 253.31-6.79L253.31-6.79L253.31-6.79Q250.32-9.27 250.32-15.11L250.32-15.11L250.32-15.11Q250.32-18.76 251.56-22.89L251.56-22.89L251.56-22.89Q252.80-27.01 255.28-30.51ZM264.77-14.89L264.77-14.89L264.77-14.89Q264.77-9.93 267.33-9.93L267.33-9.93L267.33-9.93Q269.08-9.93 270.76-11.83L270.76-11.83L270.76-11.83Q272.07-13.36 272.58-15.62L272.58-15.62L276.30-34.38L276.30-34.38Q275.94-34.46 275.57-34.60L275.57-34.60L275.57-34.60Q274.84-34.89 273.90-34.89L273.90-34.89L273.90-34.89Q269.44-34.89 266.81-27.59L266.81-27.59L266.81-27.59Q264.77-21.90 264.77-14.89ZM337.33-33.73L337.33-33.73L337.33-33.73Q338.43-35.92 338.43-37.96L338.43-37.96L338.43-37.96Q338.43-40.00 338.21-41.14L338.21-41.14L338.21-41.14Q337.99-42.27 337.48-43.14L337.48-43.14L337.48-43.14Q336.38-45.04 334.19-45.04L334.19-45.04L334.19-45.04Q331.49-45.04 329.30-43.07L329.30-43.07L329.30-43.07Q326.97-41.03 326.97-37.81L326.97-37.81L326.97-37.81Q326.97-35.77 328.39-34.20L328.39-34.20L328.39-34.20Q329.81-32.63 332.00-31.17L332.00-31.17L332.00-31.17Q334.19-29.71 336.68-28.25L336.68-28.25L336.68-28.25Q339.16-26.79 341.35-25.04L341.35-25.04L341.35-25.04Q346.38-21.02 346.38-15.62L346.38-15.62L346.38-15.62Q346.38-11.97 344.45-8.87L344.45-8.87L344.45-8.87Q342.52-5.77 339.30-3.50L339.30-3.50L339.30-3.50Q332.30 1.46 323.02 1.46L323.02 1.46L323.02 1.46Q315.51 1.46 311.64-0.99L311.64-0.99L311.64-0.99Q307.77-3.43 307.77-7.15L307.77-7.15L307.77-7.15Q307.77-13.80 312.95-15.48L312.95-15.48L312.95-15.48Q314.41-15.99 316.64-15.99L316.64-15.99L316.64-15.99Q318.86-15.99 321.42-15.04L321.42-15.04L321.42-15.04Q320.25-12.04 320.25-9.34L320.25-9.34L320.25-9.34Q320.25-3.50 324.41-3.50L324.41-3.50L324.41-3.50Q327.11-3.50 329.34-5.47L329.34-5.47L329.34-5.47Q331.57-7.45 331.57-9.67L331.57-9.67L331.57-9.67Q331.57-11.90 330.14-13.50L330.14-13.50L330.14-13.50Q328.72-15.11 326.60-16.39L326.60-16.39L326.60-16.39Q324.48-17.67 322.04-18.91L322.04-18.91L322.04-18.91Q319.59-20.15 317.48-21.90L317.48-21.90L317.48-21.90Q312.51-25.91 312.51-32.34L312.51-32.34L312.51-32.34Q312.51-36.50 314.56-39.75L314.56-39.75L314.56-39.75Q316.60-43.00 319.89-45.19L319.89-45.19L319.89-45.19Q326.46-49.64 334.52-49.64L334.52-49.64L334.52-49.64Q342.59-49.64 346.49-47.23L346.49-47.23L346.49-47.23Q350.40-44.82 350.40-40.73L350.40-40.73L350.40-40.73Q350.40-37.16 347.63-34.89L347.63-34.89L347.63-34.89Q345.22-33.00 342.30-33.00L342.30-33.00L342.30-33.00Q339.38-33.00 337.33-33.73ZM367.85 1.46L367.85 1.46L367.85 1.46Q351.79 1.46 351.79-13.65L351.79-13.65L351.79-13.65Q351.79-24.38 357.70-31.32L357.70-31.32L357.70-31.32Q363.98-38.69 374.85-38.69L374.85-38.69L374.85-38.69Q382.74-38.69 386.75-35.04L386.75-35.04L386.75-35.04Q390.77-31.39 390.77-23.72L390.77-23.72L390.77-23.72Q390.77-12.04 384.49-5.26L384.49-5.26L384.49-5.26Q378.36 1.46 367.85 1.46ZM369.74-30.29L369.74-30.29L369.74-30.29Q368.87-28.32 368.18-25.37L368.18-25.37L368.18-25.37Q367.48-22.41 366.61-17.74L366.61-17.74L366.61-17.74Q365.73-13.07 365.73-7.30L365.73-7.30L365.73-7.30Q365.73-5.40 366.35-4.16L366.35-4.16L366.35-4.16Q366.97-2.92 368.65-2.92L368.65-2.92L368.65-2.92Q370.33-2.92 371.39-3.72L371.39-3.72L371.39-3.72Q372.45-4.53 373.25-6.42L373.25-6.42L373.25-6.42Q374.71-9.78 375.88-16.02L375.88-16.02L375.88-16.02Q377.04-22.26 377.15-24.97L377.15-24.97L377.15-24.97Q377.26-27.67 377.26-29.67L377.26-29.67L377.26-29.67Q377.26-31.68 376.68-33.00L376.68-33.00L376.68-33.00Q376.10-34.31 374.45-34.31L374.45-34.31L374.45-34.31Q372.81-34.31 371.72-33.29L371.72-33.29L371.72-33.29Q370.62-32.27 369.74-30.29ZM410.99 1.46L410.99 1.46L410.99 1.46Q394.93 1.46 394.93-13.65L394.93-13.65L394.93-13.65Q394.93-24.38 400.84-31.32L400.84-31.32L400.84-31.32Q407.12-38.69 418.00-38.69L418.00-38.69L418.00-38.69Q425.88-38.69 429.90-35.04L429.90-35.04L429.90-35.04Q433.91-31.39 433.91-23.72L433.91-23.72L433.91-23.72Q433.91-12.04 427.63-5.26L427.63-5.26L427.63-5.26Q421.50 1.46 410.99 1.46ZM412.89-30.29L412.89-30.29L412.89-30.29Q412.01-28.32 411.32-25.37L411.32-25.37L411.32-25.37Q410.62-22.41 409.75-17.74L409.75-17.74L409.75-17.74Q408.87-13.07 408.87-7.30L408.87-7.30L408.87-7.30Q408.87-5.40 409.49-4.16L409.49-4.16L409.49-4.16Q410.11-2.92 411.79-2.92L411.79-2.92L411.79-2.92Q413.47-2.92 414.53-3.72L414.53-3.72L414.53-3.72Q415.59-4.53 416.39-6.42L416.39-6.42L416.39-6.42Q417.85-9.78 419.02-16.02L419.02-16.02L419.02-16.02Q420.19-22.26 420.30-24.97L420.30-24.97L420.30-24.97Q420.41-27.67 420.41-29.67L420.41-29.67L420.41-29.67Q420.41-31.68 419.82-33.00L419.82-33.00L419.82-33.00Q419.24-34.31 417.60-34.31L417.60-34.31L417.60-34.31Q415.95-34.31 414.86-33.29L414.86-33.29L414.86-33.29Q413.76-32.27 412.89-30.29ZM469.10 1.46L469.10 1.46L469.10 1.46Q460.26 1.46 460.26-5.40L460.26-5.40L460.26-5.40Q460.34-7.30 460.92-10.51L460.92-10.51L462.24-17.23L462.24-17.23Q464.21-26.72 464.21-28.83L464.21-28.83L464.21-28.83Q464.21-33.07 461.72-33.07L461.72-33.07L461.72-33.07Q457.56-33.07 455.37-22.19L455.37-22.19L451.07 0L436.39 1.46L443.99-37.30L455.96-38.69L454.79-31.54L454.79-31.54Q458.22-38.69 468.73-38.69L468.73-38.69L468.73-38.69Q473.84-38.69 476.00-36.54L476.00-36.54L476.00-36.54Q478.15-34.38 478.15-29.56L478.15-29.56L478.15-29.56Q478.15-25.04 475.81-14.45L475.81-14.45L475.81-14.45Q474.72-9.71 474.72-7.92L474.72-7.92L474.72-7.92Q474.72-6.13 475.70-5.11L475.70-5.11L475.70-5.11Q476.69-4.09 478.15-3.94L478.15-3.94L478.15-3.94Q477.42-1.46 474.90 0L474.90 0L474.90 0Q472.38 1.46 469.10 1.46Z" fill="#0f98ff"></path></g></g><style>text {
  font-size: 64px;
  font-family: Arial Black;
  dominant-baseline: central;
  text-anchor: middle;
}</style></svg>